<?xml version="1.0" encoding="UTF-8" standalone="no"?>
<!-- Created with Inkscape (http://www.inkscape.org/) -->

<svg
   width="51.511868mm"
   height="11.288891mm"
   viewBox="0 0 51.511868 11.288891"
   version="1.1"
   id="svg16381"
   xml:space="preserve"
   inkscape:version="1.2.1 (9c6d41e410, 2022-07-14)"
   sodipodi:docname="arcana.svg"
   xmlns:inkscape="http://www.inkscape.org/namespaces/inkscape"
   xmlns:sodipodi="http://sodipodi.sourceforge.net/DTD/sodipodi-0.dtd"
   xmlns="http://www.w3.org/2000/svg"
   xmlns:svg="http://www.w3.org/2000/svg"><sodipodi:namedview
     id="namedview16383"
     pagecolor="#ffffff"
     bordercolor="#666666"
     borderopacity="1.0"
     inkscape:showpageshadow="2"
     inkscape:pageopacity="0.0"
     inkscape:pagecheckerboard="0"
     inkscape:deskcolor="#d1d1d1"
     inkscape:document-units="mm"
     showgrid="false"
     inkscape:zoom="5.6568543"
     inkscape:cx="256.06104"
     inkscape:cy="298.75261"
     inkscape:window-width="1920"
     inkscape:window-height="1111"
     inkscape:window-x="1911"
     inkscape:window-y="-9"
     inkscape:window-maximized="1"
     inkscape:current-layer="layer1" /><defs
     id="defs16378" /><g
     inkscape:label="Layer 1"
     inkscape:groupmode="layer"
     id="layer1"
     transform="translate(62.124776,46.44839)"><g
       id="g221878"
       transform="matrix(0.40593968,0,0,0.40593968,-51.298119,-17.174872)"><path
         id="rect160072-3"
         style="font-variation-settings:normal;fill:#f8e2a4;fill-opacity:1;stroke:#a5af79;stroke-width:0.5;stroke-linecap:butt;stroke-linejoin:miter;stroke-miterlimit:4;stroke-dasharray:none;stroke-dashoffset:0;stroke-opacity:1;stop-color:#000000"
         d="m -26.420611,-71.606137 v 12.599231 c 0.101557,-0.35383 0.210383,-0.705859 0.327112,-1.05575 0.90632,-3.585403 2.674233,-6.913058 4.998661,-9.779248 0.491812,-0.583882 1.012765,-1.199143 1.578198,-1.764233 z m 14.751038,0 c 0.490615,0.439589 0.954914,0.909193 1.398364,1.37976 2.3010224,2.822811 3.6163544,6.308023 4.3961144,9.843844 -0.15266,-2.41119 -0.29528,-4.823606 -0.379822,-7.237284 0.05797,-1.302107 -0.291317,-2.748946 0.176217,-3.98632 z m 25.335921,9.840226 c -1.063802,1.041382 -1.708711,2.4886 -2.912484,3.361552 0.552378,1.395028 1.219318,2.741161 1.943034,4.05815 0.184495,0.656588 0.776371,0.973594 1.164787,1.494483 0.537481,1.062462 1.374944,1.944819 2.316138,2.672188 1.060321,0.974397 2.523925,1.211595 3.791499,1.794722 -2.504891,-2.173442 -4.210688,-5.193749 -4.95949,-8.435533 -0.295314,-1.278502 -0.441779,-2.591452 -0.42971,-3.900488 0.09262,-0.695914 -0.473769,-1.475806 -0.913774,-1.045074 z m 2.125968,-4.818827 c 0.794849,-2.056621 2.268857,-3.807629 4.095874,-5.021399 h -9.468672 c 0.23061,0.16985 0.454606,0.349862 0.668693,0.541569 1.553854,1.482126 2.756642,3.380164 3.148128,5.617228 0.115588,0.660503 0.982707,0.661616 1.555977,-1.137398 z m 15.879134,-5.021399 c 1.213816,0.806147 2.366824,1.820665 2.753321,3.252514 0.637752,2.215819 -2.290349,4.343033 -4.181657,2.99775 -0.810758,-0.971144 -1.930734,-1.599358 -3.235978,-1.699638 -1.954674,-0.247375 -3.624157,1.107855 -4.70979,2.591573 -0.982005,1.031327 -1.164761,2.501113 -1.095541,3.86333 -0.09192,2.0563 0.373745,4.170404 1.594218,5.857007 1.158432,1.876019 3.596488,2.911532 5.724199,2.22157 1.525505,-0.774933 2.162047,-2.573371 2.525427,-4.14445 0.133182,-1.172934 0.364229,-2.563237 1.513603,-3.181718 1.460987,-0.859036 3.321884,0.207805 3.817338,1.705839 0.07901,0.264302 0.142088,0.530987 0.192753,0.798918 0.288905,-4.106729 1.578752,-8.139468 3.904671,-11.555367 0.628623,-0.978111 1.40737,-1.919689 2.307353,-2.707328 z m 20.915004,0 c 0.30171,0.267924 0.59601,0.541259 0.87746,0.811836 2.04654,1.981611 3.19774,4.648806 4.00493,7.333403 0.22288,0.780787 0.47649,1.570518 0.68316,2.369364 -0.12999,-1.532505 -0.26616,-3.067548 -0.40256,-4.599719 -0.0391,-1.749811 -0.48322,-3.583407 0.14004,-5.278231 0.0716,-0.233611 0.17492,-0.44412 0.30024,-0.636653 z m 22.257043,0 c 1.82861,1.242007 3.281766,3.052171 4.023006,5.129402 0.52355,1.822923 0.73194,3.704757 0.68006,5.584672 0.61828,-2.845111 1.73846,-5.574937 3.38429,-7.99486 0.63164,-0.981761 1.41356,-1.928019 2.31769,-2.719214 z m 20.218396,0 c 0.33315,0.297211 0.65541,0.603163 0.96428,0.904854 1.8893,1.888071 3.03107,4.355621 3.78892,6.884334 0.0512,0.172938 0.10634,0.348682 0.15968,0.522449 v -8.311637 z m -25.530216,4.148584 c -0.0496,-0.0011 -0.0995,-7.76e-4 -0.14935,5.16e-4 -0.227783,0.0059 -0.457593,0.03721 -0.686263,0.0956 -1.78874,0.623853 -2.83174,2.469504 -3.22254,4.237984 -0.97769,5.102158 -0.58913,10.312848 -1.25212,15.466756 h 3.22461 c -0.10601,-0.72826 0.0683,-1.52315 0.44235,-2.146639 1.390713,-2.264872 3.130183,-4.336833 4.184753,-6.800618 1.02196,-2.550344 1.8441,-5.48435 0.86765,-8.175729 -0.44516,-1.488117 -1.8708,-2.644654 -3.40909,-2.677872 z m -66.2569426,0.256832 c -0.04834,-7.43e-4 -0.09652,7.05e-4 -0.144694,0.0041 -0.28903,0.02057 -0.571655,0.115526 -0.817521,0.270784 -2.01132397,2.094621 -0.802137,2.003531 0.590662,2.372465 1.147131,0.477136 2.085286,1.548088 3.399792,1.646928 1.471568,0.328141 2.611733,-1.5094 1.915645,-2.754354 -1.135612,-1.424777 -3.149416,-1.368157 -4.798673,-1.531172 -0.04837,-0.0051 -0.09687,-0.008 -0.145211,-0.0088 z m 44.3833376,0.564823 c -0.03956,0.0013 -0.07893,0.0046 -0.118339,0.01034 -1.795209,0.719814 -2.900838,2.66495 -3.038575,4.54701 2.608251,0.705951 2.806097,1.297019 4.763017,0.19482 0.454227,-0.334863 1.385369,-0.494371 1.161169,-1.253154 -0.30066,-1.375517 -0.912,-3.047333 -2.412255,-3.469039 -0.07798,-0.01356 -0.157046,-0.02397 -0.236162,-0.02842 -0.03956,-0.0022 -0.0793,-0.0029 -0.118855,-0.0016 z m 42.493011,0 c -0.0464,-8.54e-4 -0.0932,-2.97e-4 -0.13901,0.0083 -1.79233,0.718034 -2.91604,2.662965 -3.03857,4.549077 2.82654,0.888145 3.02246,1.193472 5.27926,-0.09767 0.47311,-0.174899 0.81027,-0.560274 0.61753,-1.082621 -0.32411,-1.381158 -0.99672,-3.109678 -2.5802,-3.376022 -0.0462,0.0024 -0.0926,-1.79e-4 -0.13901,-0.001 z m -106.737152,3.94963 c -1.046584,-0.01 -2.131168,0.667403 -2.759005,1.491898 -1.761117,2.412137 -2.39609,5.342958 -2.877344,8.200533 -0.422243,1.755799 -0.195771,3.633436 -0.829923,5.337142 h 12.435933 c -0.212895,-1.587886 0.202062,-3.237861 -0.317293,-4.795056 -0.163922,-0.324832 -0.245776,-0.953434 -0.657324,-0.994254 -1.952639,-0.06518 -4.052927,0.489631 -5.88853,-0.399976 -1.792034,-0.88404 -1.824057,-3.529402 -0.538985,-4.859135 1.044082,-1.257847 2.789789,-1.125525 4.254004,-1.25212 -0.353951,-0.817515 -0.752047,-1.671681 -1.46451,-2.238623 -0.413544,-0.339137 -0.881306,-0.485866 -1.357023,-0.490409 z m 17.36948243,2.894913 c -0.235059,2.580349 -0.34769,5.319847 -0.575675,7.958688 -0.189713,1.36348 -0.127802,2.843427 -0.51263,4.175972 H 9.8371244 c -0.668423,-1.01704 -1.253244,-2.094615 -1.794722,-3.168282 -0.948709,-2.013276 -1.86072,-4.05357 -2.690792,-6.112805 -1.690423,-0.582379 -3.490089,-1.333377 -4.56819697,-2.853573 z m 43.41440457,3.707784 c -1.361534,1.205512 -1.375327,3.129906 -1.409217,4.806425 -0.116666,1.183796 0.03829,2.449674 -0.206705,3.620451 h 9.592698 c -0.0398,-0.819073 0.1224,-1.685622 0.19947,-2.462899 0.41479,-1.731497 0.22614,-3.613772 -0.67593,-5.166609 -2.284411,-3.128712 -5.386494,-3.056299 -7.500316,-0.797368 z m 42.416505,0.04961 c -1.33809,1.212269 -1.32266,3.123256 -1.36116,4.786271 -0.11881,1.175307 0.0385,2.429394 -0.20464,3.590995 h 9.59941 c -0.0398,-0.820297 0.11588,-1.683288 0.19224,-2.468583 0.42477,-1.746515 0.21077,-3.640753 -0.69608,-5.204333 -2.10907,-3.479752 -5.18026,-3.287449 -7.52977,-0.70435 z m -7.61191,-0.620637 c -0.40987,1.808331 -1.032266,3.571117 -1.820046,5.230688 -0.68425,1.279457 -1.35478,2.631172 -2.27634,3.767212 h 5.313366 c -0.50478,-1.255649 -0.7483,-2.624599 -0.94206,-3.955314 -0.25936,-1.663422 -0.34768,-3.356577 -0.27492,-5.042586 z m -20.272149,2.198832 c -0.006,0.118208 -0.0145,0.236546 -0.0253,0.3545 -0.15596,2.147701 -0.18487,4.533847 -1.25419,6.444568 h 1.94304 c -0.45211,-2.229276 -0.49519,-4.523801 -0.66353,-6.799068 z m -22.180558,0.346234 c -0.427349,2.234109 -1.663792,4.339112 -3.358968,5.835303 -0.237724,0.221913 -0.490284,0.424191 -0.749309,0.617533 h 5.309237 c -0.522071,-1.299383 -0.760366,-2.721443 -0.959115,-4.09794 -0.117778,-0.779847 -0.196985,-1.566183 -0.241845,-2.354896 z m -41.8641116,2.903183 c -0.0049,0.538306 -0.01262,1.076308 -0.02532,1.613855 -0.0084,0.612374 -0.03609,1.29143 -0.163298,1.935799 h 0.448035 c -0.108913,-0.716088 -0.105569,-1.469917 -0.19017,-2.161108 -0.02076,-0.462729 -0.04547,-0.925651 -0.06925,-1.388546 z m 105.2891786,3.440617 c -0.0193,0.03613 -0.0363,0.07325 -0.0563,0.109037 h 0.0563 z"
         sodipodi:nodetypes="ccccccccccccscccccscsccccsccccccccccccccccccccccccccccccccccccsscccccccssccccccsscccccsssccccccsccccccccccscccccccsccccccsscccccscccccccccccccccccccccccccccccccc"
         inkscape:export-filename="..\..\..\..\Research\arcana-asml-dist\arcana.svg"
         inkscape:export-xdpi="15"
         inkscape:export-ydpi="15" /><g
         id="g204234"
         style="fill:#c74730;fill-opacity:1"
         transform="translate(-30.778493,-73.850319)"><path
           style="fill:#c74730;fill-opacity:1;stroke-width:0.264583"
           d="m 55.574371,26.338442 c -2.64059,-0.6707 -5.07043,-2.74048 -6.73884,-5.74024 -3.6674,-6.59394 -1.80476,-15.1478938 3.85549,-17.7058238 3.09282,-1.397678 6.608442,-1.061038 9.193592,0.880335 1.9657,1.476177 2.36365,2.691869 1.09579,3.347509 -0.72144,0.37307 -0.79026,0.35564 -1.49332,-0.3782 -1.32797,-1.386104 -3.852572,-1.920112 -6.014852,-1.272275 -1.39918,0.419205 -3.50418,2.352805 -4.37919,4.022615 -0.63501,1.2118298 -0.70654,1.6246398 -0.69259,3.9972198 0.0133,2.26827 0.12078,2.90139 0.75286,4.4366 1.0167,2.46942 2.58616,4.15785 4.45475,4.79244 1.88754,0.64103 4.042912,0.50222 5.098842,-0.32838 1.26005,-0.99115 2.4104,-3.11006 2.67752,-4.93191 0.23422,-1.59742 0.35602,-1.92919 0.76604,-2.08653 1.23388,-0.47348 2.01744,1.19808 1.6906,3.60657 -0.54461,4.01325 -3.95225,7.29404 -7.78984,7.49988 -0.874812,0.0469 -1.989402,-0.016 -2.476852,-0.13981 z"
           id="path21653-1" /><path
           style="fill:#c74730;fill-opacity:1;stroke-width:0.264583"
           d="m 91.829157,26.510312 c -0.15553,-0.1874 -0.4182,-2.41755 -0.58371,-4.95589 -0.16551,-2.53834 -0.34775,-4.69092 -0.40498,-4.78351 -0.0572,-0.0926 -0.11802,-0.80924 -0.1351,-1.59255 -0.0171,-0.78331 -0.19842,-3.01314 -0.40298,-4.95517 -0.20455,-1.9420298 -0.37192,-4.2750598 -0.37192,-5.1845108 0,-1.982228 0.43952,-2.524565 2.20743,-2.723834 1.0725,-0.120886 1.22165,-0.06285 1.78028,0.692749 0.73606,0.995573 0.9023,1.006382 2.53631,0.164907 2.79647,-1.440113 5.709123,-1.373134 7.973673,0.183363 3.2148,2.20963 4.33304,4.557506 4.32377,9.0782358 -0.009,4.15097 -1.50501,8.82893 -3.91025,12.22323 -0.91054,1.28496 -1.37895,1.70243 -2.15067,1.91675 -1.24784,0.34655 -1.81603,0.34726 -2.45918,0.003 -0.875553,-0.46858 -0.586493,-1.4316 1.12094,-3.73441 2.71611,-3.66323 4.07167,-6.93555 4.3758,-10.56319 0.2883,-3.4388698 -1.40317,-6.5118498 -3.99189,-7.2522928 -1.43561,-0.410625 -2.927693,-0.246429 -3.810063,0.419279 -3.26251,2.461414 -3.70565,4.227784 -4.16667,16.6084738 -0.0779,2.09161 -0.26119,4.02637 -0.40735,4.29948 -0.30602,0.57179 -1.10997,0.65403 -1.52344,0.15583 z"
           id="path21647-8" /><path
           style="fill:#c74730;fill-opacity:1;stroke-width:0.264583"
           d="m 46.919414,29.393962 c -3.12222,-0.82552 -5.15158,-3.36619 -8.05425,-10.08355 l -1.60063,-3.70416 -1.53475,-0.52917 c -2.65563,-0.91564 -4.19598,-3.06647 -2.94163,-4.10748 0.33337,-0.27667 0.50811,-0.24548 0.99219,0.17711 0.90549,0.79047 2.48647,1.41693 3.57309,1.41584 2.78465,-0.003 4.38877,-3.0891998 2.83671,-5.4579498 -0.88365,-1.348612 -3.64965,-2.155077 -6.81832,-1.987972 -1.08132,0.05703 -2.60975,1.566572 -2.72925,2.695542 -0.0533,0.5032 -0.15594,1.2721 -0.22817,1.70866 -0.19491,1.1780898 -0.3772,3.2455998 -0.67653,7.6729198 -0.48178,7.12624 -0.59378,8.19047 -0.95581,9.08234 -0.42534,1.04787 -1.16179,1.05681 -1.43974,0.0175 -0.10146,-0.37937 -0.26149,-2.46297 -0.35564,-4.63021 -0.0942,-2.16725 -0.22562,-4.59529 -0.29217,-5.39566 -0.28086,-3.37782 -0.38523,-5.12462 -0.55015,-9.2080798 -0.16229,-4.018268 -0.14037,-4.338915 0.3205,-4.687939 0.3859,-0.292255 1.61347,-0.376499 5.58178,-0.383064 4.67214,-0.0077 5.20769,0.04014 6.56573,0.586898 2.6907,1.083286 5.408,4.669375 4.73238,6.245435 -0.10262,0.23942 -0.16185,0.81219 -0.13161,1.2728498 0.0302,0.46066 -0.1239,1.18348 -0.34253,1.60628 -0.47274,0.91416 -2.27176,2.71553 -2.71201,2.71553 -0.17057,0 -0.36826,0.15146 -0.4393,0.33659 -0.13427,0.34991 1.4468,4.05805 2.25536,5.28957 0.25466,0.38787 0.46302,0.82429 0.46302,0.96981 0,0.14552 0.23813,0.39202 0.52917,0.54778 0.29104,0.15576 0.52917,0.45538 0.52917,0.66581 0,0.21044 0.71244,1.06946 1.58319,1.90893 1.29342,1.24694 1.9593,1.65679 3.63802,2.2392 1.13016,0.3921 2.16307,0.88193 2.29537,1.08852 0.81597,1.27414 -1.84005,2.52786 -4.09319,1.93213 z"
           id="path21628-7" /><path
           style="fill:#c74730;fill-opacity:1;stroke-width:0.264583"
           d="m 84.589717,26.686392 c -0.13853,-0.36101 0.0108,-2.23948 0.33987,-4.27499 0.33229,-2.05547 -1.12627,-5.648 -2.56001,-6.30546 -0.35268,-0.16173 -1.09575,-0.49106 -1.651272,-0.73183 -1.404613,-0.6088 -1.261806,-1.3759 0.411082,-2.20826 1.67249,-0.83216 1.9384,-1.37185 1.54409,-3.13382 -0.59811,-2.6726598 -2.294111,-4.4358538 -4.266802,-4.4358538 -1.93934,0 -4.438977,3.012214 -4.676887,5.6359138 -0.16077,1.7729 -0.0109,1.93198 2.11089,2.23978 1.683107,0.24417 2.09111,0.9338 0.908957,1.53644 -0.463167,0.23612 -1.108067,0.50442 -1.433087,0.59622 -0.97724,0.276 -2.57834,2.07273 -2.96811,3.33074 -0.20715,0.66857 -0.3777,2.49928 -0.39847,4.27707 -0.0374,3.19916 -0.2114,3.76422 -1.107577,3.59629 -1.00411,-0.18814 -1.99574,-4.77595 -1.97093,-9.11848 0.041,-7.17361 4.398367,-15.1126058 8.689694,-15.8324248 2.107814,-0.353559 3.1187,0.01633 5.066632,1.853921 1.95182,1.841247 2.78646,3.205164 3.79773,6.206054 1.19662,3.5508898 1.59554,5.6656098 1.21036,6.4161498 -0.16135,0.3144 -0.1368,0.46302 0.0765,0.46302 0.45984,0 0.12262,6.13955 -0.42101,7.66538 -0.66377,1.86303 -2.31769,3.22464 -2.70162,2.22414 z"
           id="path21655-3" /><path
           style="fill:#c74730;fill-opacity:1;stroke-width:0.264583"
           d="m 127.05534,26.686392 c -0.13853,-0.36101 0.0108,-2.23948 0.33987,-4.27499 0.33229,-2.05547 -1.12627,-5.648 -2.56001,-6.30546 -0.35268,-0.16173 -1.09576,-0.49106 -1.65128,-0.73183 -1.40462,-0.6088 -1.26181,-1.3759 0.41108,-2.20826 1.6725,-0.83216 1.93841,-1.37185 1.5441,-3.13382 -0.59811,-2.6726598 -2.29412,-4.4358538 -4.26682,-4.4358538 -1.93934,0 -4.43898,3.012214 -4.67689,5.6359138 -0.16077,1.7729 -0.0109,1.93198 2.11089,2.23978 1.68311,0.24417 2.09111,0.9338 0.90896,1.53644 -0.46317,0.23612 -1.10807,0.50442 -1.43309,0.59622 -0.97724,0.276 -2.57834,2.07273 -2.96811,3.33074 -0.20715,0.66857 -0.3777,2.49928 -0.39847,4.27707 -0.0374,3.19916 -0.2114,3.76422 -1.10757,3.59629 -1.00411,-0.18814 -1.99574,-4.77595 -1.97093,-9.11848 0.041,-7.17361 4.39836,-15.1126058 8.68969,-15.8324248 2.10782,-0.353559 3.11871,0.01633 5.06665,1.853921 1.95182,1.841247 2.78646,3.205164 3.79773,6.206054 1.19662,3.5508898 1.59554,5.6656098 1.21036,6.4161498 -0.16135,0.3144 -0.1368,0.46302 0.0765,0.46302 0.45984,0 0.12262,6.13955 -0.42101,7.66538 -0.66377,1.86303 -2.31769,3.22464 -2.70162,2.22414 z"
           id="path21657-01" /><path
           d="m 22.407575,26.829282 c -0.11623,-0.11622 -0.740497,-0.56276 -0.740497,-0.99229 0,-0.87463 0.230747,-2.46876 -0.181193,-4.40949 -0.21486,-1.0122 -0.4102,-1.447502 -0.88583,-1.97397 l -0.6102,-0.67542 -2.60643,0.0914 c -2.42019,0.08487 -2.72959,0.0592 -3.28796,-0.25144 -0.57393,-0.31921 -0.61549,-0.40053 -0.60369,-1.18098 0.0108,-0.71217 0.0972,-0.91371 0.57512,-1.3407 0.48806,-0.43608 0.70763,-0.50357 1.66031,-0.51031 1.38448,-0.01 3.14791,-0.38123 3.21922,-0.74262 0.11286,-0.57192 -1.04912,-3.152087 -2.03344,-4.118367 -1.40324,-1.3775198 -3.26,-1.5330298 -5.14429,-0.45494 -2.7323599,1.5633 -4.5793499,6.564767 -5.1969799,13.666617 -0.11866,1.36436 -0.26568,1.81413 -0.53921,2.08765 -0.4254,0.4254 -1.02124,0.29154 -1.19928,-0.26943 -0.32817,-1.03397 0.0901,-6.80234 0.65382,-9.01646 0.18252,-0.71691 1.04304,-3.58185 1.50751,-5.01897 0.79337,-2.4548098 3.5573499,-6.7132378 5.4887099,-8.4563558 1.34502,-1.21392 1.96804,-1.471578 2.7174,-1.48185 1.26598,-0.01735 3.8268,2.436152 4.60992,3.457232 0.64312,0.838546 1.97061,3.397655 2.50052,4.8549138 0.46185,1.270098 0.85707,2.887177 1.25442,4.577787 0.19891,0.84627 0.2192,3.571665 0.24671,4.188541 0.0872,1.95647 0.25645,6.68154 -0.30108,7.7564 -0.22512,0.43403 -0.77318,0.543462 -1.10358,0.213052 z"
           style="opacity:1;fill:#c74730;fill-opacity:1;stroke-width:0.176104"
           id="path35205-3"
           sodipodi:nodetypes="sssscscsscssssssssssssssss" /></g></g></g></svg>
