<?xml version="1.0" encoding="UTF-8" standalone="no"?>
<!-- Created with Inkscape (http://www.inkscape.org/) -->

<svg
   width="51.687019mm"
   height="11.288887mm"
   viewBox="0 0 51.687019 11.288887"
   version="1.1"
   id="svg16381"
   xml:space="preserve"
   xmlns="http://www.w3.org/2000/svg"
   xmlns:svg="http://www.w3.org/2000/svg"><defs
     id="defs16378" /><g
     id="layer1"
     transform="translate(-72.822153,-116.20522)"><g
       id="g223950"
       transform="matrix(0.39958336,0,0,0.39958336,68.577898,153.06707)"><path
         id="path223129"
         style="font-variation-settings:normal;fill:#a5af79;fill-opacity:1;stroke:none;stroke-width:0.507425;stroke-linecap:butt;stroke-linejoin:miter;stroke-miterlimit:4;stroke-dasharray:none;stroke-dashoffset:0;stroke-opacity:1;stop-color:#000000"
         d="m 10.625,-91.707031 c 0.01306,4.294411 -0.02612,8.59399 0.01959,12.885172 0.162359,0.319863 0.135621,1.885894 0.472379,1.056444 0.911402,-1.414915 1.064848,-3.233752 1.707253,-4.705288 1.348524,-3.513614 3.488215,-6.678132 6.202915,-9.372816 0.866106,-0.62144 -0.420683,-0.32867 -0.866978,-0.392809 -2.511718,0 -5.023437,0 -7.535156,0 0,0.176432 0,0.352864 0,0.529297 z m 15.134766,0.384765 c 2.628708,2.267173 4.139286,5.557673 5.124553,8.783655 0.38856,1.105 0.409216,2.345323 1.177204,3.285267 0.264044,0.422378 0.409405,-0.942602 0.457833,-1.293958 -0.200219,-3.368529 -0.418407,-6.732036 -0.41584,-10.110901 0.04521,-0.550089 0.263899,-1.058539 0.43164,-1.578125 -2.58138,0 -5.16276,0 -7.74414,0 0.322916,0.304687 0.645833,0.609375 0.96875,0.914062 z m 22.458984,0.03516 c 1.960257,1.493704 3.31612,3.746136 3.746094,6.169921 0.311752,0.881819 1.53227,0.675788 1.911263,-0.04507 0.656277,-1.001882 0.87442,-2.236518 1.625934,-3.19329 1.081158,-1.689237 2.696934,-2.777949 4.339756,-3.880783 -4.285807,0 -8.571615,0 -12.857422,0 0.411458,0.316406 0.822917,0.632812 1.234375,0.949219 z m 21.589844,0.01563 c 1.266183,0.853484 2.723422,2.079856 2.635022,3.755591 -0.218253,1.487886 -2.227377,2.67449 -3.507024,1.672411 -1.652438,-1.966152 -4.846695,-2.426098 -6.89753,-0.814721 -1.081705,0.82082 -2.031996,1.870998 -2.644531,3.085937 -0.643557,1.605381 -0.464889,3.387191 -0.349609,5.070313 0.334728,2.364231 1.473576,4.792546 3.554687,6.087891 1.445381,0.844854 3.380371,1.176686 4.896485,0.347656 1.801338,-1.208961 2.381602,-3.485466 2.677714,-5.507395 0.131388,-1.165944 1.228379,-2.276825 2.457051,-1.92034 1.143509,0.263027 1.821749,1.366836 1.971795,2.464632 0.123047,0.489278 0.664083,1.53104 0.815009,0.491008 0.371527,-1.331849 0.313963,-2.751692 0.676513,-4.095095 0.729507,-3.439746 2.234854,-6.754764 4.491471,-9.513694 0.647979,-0.768578 1.430968,-1.404188 2.1624,-2.089038 -4.777344,0 -9.554688,0 -14.332031,0 0.464192,0.321614 0.928385,0.643229 1.392578,0.964844 z m 21.166015,-0.04687 c 2.495683,2.01723 3.925346,5.005701 4.806641,8.027343 0.396329,1.160911 0.519192,2.439921 1.344371,3.40328 0.215245,0.100586 0.380583,-1.071555 0.358015,-1.495108 -0.205949,-2.669207 -0.538541,-5.335792 -0.559808,-8.01364 0.01314,-1.037231 0.460189,-1.982612 1.00586,-2.839844 -2.649089,0 -5.298178,0 -7.947266,0 0.330729,0.305989 0.661458,0.611979 0.992187,0.917969 z m 22.642581,0.04297 c 2.31251,1.559383 4.00204,4.077998 4.31498,6.875719 0.21525,1.200225 0.22567,2.382771 0.25926,3.658498 0.18143,0.365309 0.22847,1.831523 0.57558,0.839467 0.70347,-1.070089 0.71791,-2.404479 1.22173,-3.565812 0.98752,-2.773002 2.42237,-5.464738 4.52493,-7.553965 0.44454,-0.403651 0.88674,-0.809879 1.33008,-1.214844 -4.5306,0 -9.0612,0 -13.5918,0 0.45508,0.320312 0.91016,0.640625 1.36524,0.960937 z m 20.46484,-0.04102 c 1.71765,1.443241 2.99274,3.272241 3.85393,5.374163 0.61943,1.376693 0.85361,2.903279 1.71443,4.168805 0.49809,-1.726099 0.24483,-3.527832 0.30469,-5.298046 0,-1.721615 0,-3.44323 0,-5.164844 -2.29297,0 -4.58594,0 -6.87891,0 0.33529,0.306641 0.67057,0.613281 1.00586,0.919922 z m -25.74805,3.292968 c -2.1073,0.128248 -3.58305,2.06348 -4.19184,3.933321 -0.71234,2.539512 -0.81061,5.207091 -0.9671,7.827264 -0.14993,3.150082 -0.20514,6.261645 -0.62621,9.389806 1.48307,0 2.96614,0 4.44922,0 -0.23095,-1.060205 5.1e-4,-2.175413 0.69186,-3.020478 1.75452,-2.653008 3.76734,-5.234538 4.61351,-8.358256 0.81111,-2.54348 1.07336,-5.544988 -0.40108,-7.900563 -0.79635,-1.146965 -2.15605,-1.920321 -3.56836,-1.871094 z m -67.205074,0.261719 c -1.168154,0.03869 -1.928011,1.123886 -2.376953,2.083985 -0.301523,0.914144 0.694053,1.416282 1.447414,1.50016 1.520653,0.311024 2.580517,1.795924 4.200438,1.837995 2.022299,0.370574 3.538302,-2.528314 2.059179,-3.961202 -1.397235,-1.370294 -3.516204,-1.324613 -5.330078,-1.460938 z m 45.160156,0.572266 c -1.801482,0.473636 -3.032597,2.21926 -3.496093,3.958984 -0.138878,0.515792 -0.185779,1.048216 -0.236328,1.578125 1.345117,0.266963 2.615583,1.077096 4.019531,0.929688 1.019423,-0.216701 1.938611,-0.780875 2.787109,-1.359375 0.704115,-0.732154 0.09585,-1.777029 -0.137354,-2.581836 -0.450805,-1.245638 -1.498556,-2.540468 -2.936865,-2.525586 z m 42.998048,0.0059 c -2.26745,0.75759 -3.56385,3.222767 -3.62305,5.521485 1.57827,0.414742 3.28103,1.414606 4.91167,0.635211 0.75161,-0.42532 1.76803,-0.644398 2.15669,-1.492633 0.18236,-0.954373 -0.32387,-1.903459 -0.68729,-2.765686 -0.51486,-1.02807 -1.53908,-1.975621 -2.75802,-1.898377 z m -108.367188,4.00586 c -1.819542,0.128206 -3.157931,1.605952 -3.90911,3.154584 -1.425425,2.687224 -1.927292,5.739426 -2.362159,8.714582 -0.119038,1.52713 -0.211115,2.989715 -0.816622,4.435521 4.646485,0 9.292969,0 13.939453,0 -0.340078,-2.146512 0.35325,-4.500413 -0.798828,-6.478515 -0.575191,-0.785673 -1.683419,-0.356084 -2.508247,-0.406195 -1.532618,0.05952 -3.464401,0.312726 -4.659721,-0.929743 -1.243124,-1.625357 -0.04976,-4.293417 1.986328,-4.474609 0.993287,-0.158943 2.002557,-0.164815 3.003906,-0.242188 -0.638801,-1.467403 -1.358945,-3.338188 -3.113514,-3.719657 -0.248595,-0.05033 -0.507782,-0.06645 -0.761486,-0.05378 z m 31.083984,0.810546 c -0.883137,0.269197 -1.299671,1.253183 -1.875363,1.908886 -0.530783,0.7485 -1.130705,1.457937 -1.892215,1.98174 0.726092,1.787975 1.555628,3.549932 2.525604,5.209792 0.517289,0.502169 0.967826,1.045135 1.310334,1.682786 1.167947,1.602738 2.799504,2.907408 4.728525,3.45273 0.903206,0.370746 1.824774,0.666871 2.785147,0.85391 -0.961678,-1.397415 -2.384437,-2.38681 -3.312128,-3.814646 -2.085967,-2.892451 -3.04838,-6.490242 -3.003221,-10.029726 -0.0849,-0.613723 -0.571904,-1.327044 -1.266683,-1.245472 z m -13.769531,2.607422 c -0.328303,3.840361 -0.463257,7.700292 -0.932181,11.525701 0.055,0.458387 -0.709415,1.504142 0.08218,1.361018 3.840625,0 7.68125,0 11.521875,0 -2.167425,-3.207208 -3.620163,-6.813942 -5.109375,-10.367187 -1.903746,-0.619591 -3.889493,-1.494294 -4.97571,-3.275044 -0.519948,-0.980657 -0.543988,-0.263104 -0.563736,0.469152 -0.0077,0.09545 -0.01537,0.190907 -0.02305,0.28636 z m 91.259765,1.375 c -1.99123,0.08244 -3.69272,1.488115 -4.76711,3.073859 -0.94717,1.726803 -0.70334,3.773785 -0.82311,5.668311 0.018,0.930631 -0.061,1.858464 -0.25353,2.769549 3.63607,0 7.27214,0 10.9082,0 -0.19305,-2.057562 0.69523,-4.068567 0.28915,-6.118896 -0.39416,-2.27839 -1.89839,-4.571369 -4.1954,-5.258057 -0.37715,-0.09978 -0.76836,-0.145683 -1.1582,-0.134766 z m -43.451171,0.253907 c -1.913577,0.124005 -3.648155,1.432265 -4.545928,3.084883 -0.801287,1.774453 -0.588114,3.782957 -0.691044,5.677963 0.01927,0.839545 -0.0935,1.671655 -0.247403,2.494966 3.632161,0 7.264323,0 10.896484,0 -0.189193,-2.182991 0.793335,-4.341108 0.220703,-6.507812 -0.436275,-2.282789 -2.329115,-4.252278 -4.622138,-4.689896 -0.33273,-0.06124 -0.672992,-0.07836 -1.010674,-0.0601 z m 31.585941,1.472656 c -0.81966,3.555424 -2.40227,6.958181 -4.72071,9.785156 2.41016,0 4.82032,0 7.23047,0 -1.09922,-2.683473 -1.44227,-5.635788 -1.49123,-8.486714 0.0859,-0.860609 -0.0572,-1.690581 -0.32517,-2.50938 -0.23112,0.403646 -0.46224,0.807292 -0.69336,1.210938 z m -20.587894,2.318359 c -0.174564,2.485715 -0.182902,5.133242 -1.562044,7.315001 0.04699,0.344961 1.135146,0.0565 1.592512,0.151796 0.601172,0 1.202344,0 1.803516,0 -0.551052,-2.482905 -0.56841,-5.045826 -0.819246,-7.556517 -0.241417,-0.435316 -0.480479,-1.64887 -0.726508,-0.560917 -0.09608,0.216879 -0.192154,0.433758 -0.28823,0.650637 z m -22.03711,-0.765625 c -0.658438,1.295136 -0.765318,2.804769 -1.574315,4.041049 -0.616085,1.090195 -1.415325,2.036472 -2.287299,2.777967 -0.578685,0.494022 -1.198736,0.937864 -1.792683,1.413406 2.563151,0 5.126302,0 7.689453,0 -1.003858,-2.309014 -1.227963,-4.84635 -1.509863,-7.312877 -0.18453,-0.271943 -0.0665,-1.057614 -0.525293,-0.919545 z m -42.958984,4.091797 c -0.02358,1.384032 0.0069,2.778322 -0.28125,4.140625 0.516558,-0.06424 1.321839,0.128717 1.654503,-0.09933 -0.19867,-1.373891 -0.204535,-2.782243 -0.358814,-4.148592 -0.271334,-0.555946 -0.548852,-1.470659 -0.791929,-0.387165 -0.07417,0.164822 -0.14834,0.329645 -0.22251,0.494467 z m 106.910158,3.257813 c -0.41429,0.616442 -0.59529,1.091818 0.34492,0.882812 0.77579,0.248464 0.69143,-0.379847 0.64697,-0.938562 -0.0736,-0.384261 0.0834,-1.711874 -0.14167,-1.476403 -0.28341,0.510718 -0.56681,1.021435 -0.85022,1.532153 z" /><path
         id="path223103"
         style="font-variation-settings:normal;fill:#f8e2a4;fill-opacity:1;stroke:none;stroke-width:0.507425;stroke-linecap:butt;stroke-linejoin:miter;stroke-miterlimit:4;stroke-dasharray:none;stroke-dashoffset:0;stroke-opacity:1;stop-color:#000000"
         d="m 11.153933,-91.706945 v 11.753169 c -0.0219,0.54989 0.103796,0.598225 0.331969,-0.03828 0.919779,-3.638644 2.713944,-7.015712 5.072888,-9.924462 0.273619,-0.324843 0.556127,-0.659256 0.850086,-0.989605 0.334767,-0.307139 0.200124,-0.824212 -0.313649,-0.800826 z m 15.62592,0.61748 c 0.261457,0.257349 0.515578,0.51991 0.763288,0.782768 2.011521,2.467661 3.280798,5.434123 4.0998,8.502549 0.297211,1.003977 0.28648,0.92276 0.264065,-0.08273 -0.116614,-1.924071 -0.220487,-3.848915 -0.287934,-5.774551 0.05883,-1.321442 -0.295643,-2.789766 0.178834,-4.045514 h -4.826943 c -0.488299,0 -0.504225,0.305185 -0.19111,0.61748 z m 25.056298,9.368866 c -1.079598,1.056845 -1.734084,2.525553 -2.955732,3.411468 0.560581,1.415743 1.237424,2.781865 1.971887,4.11841 0.187234,0.666338 0.787899,0.988051 1.182083,1.516675 0.545462,1.078239 1.395361,1.973698 2.350531,2.711868 0.534981,0.491628 1.836119,1.107837 2.71211,1.456502 1.175824,0.435735 0.794277,0.153412 0.301318,-0.418834 -2.088337,-2.121018 -3.525132,-4.860744 -4.198763,-7.77709 -0.299699,-1.297486 -0.448339,-2.629933 -0.436091,-3.958407 0.09399,-0.706248 -0.480804,-1.49772 -0.927343,-1.060592 z m 2.157537,-4.890383 c 0.718436,-1.858908 1.983608,-3.471792 3.561672,-4.672581 0.326229,-0.224349 0.348737,-0.406846 -0.248264,-0.423382 h -7.962304 c -0.3768,-0.0062 -0.462777,0.251565 -0.125061,0.549611 1.576928,1.504134 2.797576,3.430357 3.194875,5.700639 0.117305,0.670311 0.9973,0.671441 1.579082,-1.154287 z m 16.958806,-4.485434 c 0.892105,0.711617 1.649698,1.576551 1.950326,2.690282 0.647222,2.248723 -2.324359,4.407524 -4.243751,3.042265 -0.822797,-0.985565 -1.959404,-1.623108 -3.28403,-1.724877 -1.983699,-0.251048 -3.677972,1.124306 -4.779726,2.630056 -0.996587,1.046641 -1.182057,2.538253 -1.111809,3.920697 -0.09329,2.086835 0.379295,4.232332 1.617891,5.943979 1.175633,1.903877 3.649893,2.954766 5.809198,2.254559 1.548158,-0.78644 2.194152,-2.611584 2.562928,-4.205992 0.13516,-1.190351 0.369638,-2.601299 1.536079,-3.228964 1.482681,-0.871792 3.371211,0.210891 3.874022,1.731169 0.08897,0.225159 0.236198,0.164394 0.281027,-0.146672 0.414778,-3.834407 1.697838,-7.568779 3.877241,-10.769501 0.371821,-0.578538 0.795395,-1.144481 1.264917,-1.674242 0.53161,-0.712186 0.487647,-1.049902 -0.466718,-1.073288 h -8.594385 c -0.743277,0.0183 -0.786079,0.251281 -0.29321,0.610529 z m 21.272185,0.213362 c 2.07693,2.011037 3.245224,4.717837 4.0644,7.442298 0.727835,2.66627 0.591321,1.182648 0.284767,-2.263474 -0.03968,-1.775794 -0.490395,-3.636617 0.14212,-5.356608 0.212904,-0.469979 0.101239,-0.634414 -0.28345,-0.646107 h -4.045793 c -0.81769,0.0125 -0.710552,0.372121 -0.162044,0.823891 z m 22.200771,-0.460477 c 1.61806,1.238371 2.89619,2.928602 3.57903,4.842156 0.44882,1.56275 0.66942,3.16816 0.69537,4.779022 0.0235,0.544793 0.0762,0.568624 0.20301,0.0077 0.65703,-2.569138 1.72665,-5.027696 3.22632,-7.232714 0.52422,-0.814793 1.15043,-1.60549 1.86306,-2.305731 0.29718,-0.284941 0.23633,-0.453861 -0.25647,-0.453861 h -9.25387 c -0.38154,7.4e-5 -0.39528,0.09106 -0.0564,0.363414 z m 20.9935,0.554877 c 1.91736,1.916107 3.07608,4.420298 3.84519,6.98656 0.12231,0.375074 0.19512,0.332863 0.16205,-0.08736 v -7.817492 l -3.92645,10e-7 c -1.005,-0.0043 -0.88613,0.145475 -0.0808,0.918291 z m -26.88791,3.291896 c -0.0503,-0.0011 -0.10098,-7.87e-4 -0.15157,5.24e-4 -0.23117,0.006 -0.46439,0.03776 -0.69646,0.09702 -1.8153,0.633116 -2.87378,2.506174 -3.27039,4.300914 -0.99221,5.177921 -0.59788,10.465986 -1.27071,15.696425 h 3.27249 c -0.10758,-0.739074 0.0693,-1.545767 0.44892,-2.178515 1.41136,-2.298503 3.17666,-4.401231 4.24689,-6.901601 1.03714,-2.588215 1.87149,-5.565789 0.88054,-8.297132 -0.45177,-1.510215 -1.89858,-2.683925 -3.45971,-2.717637 z m -67.240809,0.260646 c -0.04906,-7.54e-4 -0.09795,7.16e-4 -0.146843,0.0042 -0.293322,0.02087 -0.580144,0.117241 -0.829661,0.274805 -2.04119,2.125724 -0.814048,2.033282 0.599433,2.407694 1.164165,0.484221 2.116251,1.571076 3.450277,1.671384 1.493419,0.333013 2.650515,-1.531814 1.94409,-2.795254 -1.152475,-1.445934 -3.196182,-1.388473 -4.869929,-1.553909 -0.04909,-0.0052 -0.09831,-0.0081 -0.147367,-0.0089 z m 45.042394,0.57321 c -0.04015,0.0013 -0.0801,0.0047 -0.120096,0.01049 -1.821866,0.730502 -2.943913,2.704522 -3.083695,4.614529 2.646981,0.716434 2.847765,1.316279 4.833744,0.197713 0.460971,-0.339835 1.40594,-0.501712 1.178411,-1.271762 -0.305125,-1.395943 -0.925542,-3.092584 -2.448075,-3.520552 -0.07914,-0.01376 -0.159378,-0.02433 -0.239669,-0.02884 -0.04015,-0.0022 -0.08048,-0.0029 -0.12062,-0.0016 z m 43.123995,0 c -0.0471,-8.66e-4 -0.0946,-3.01e-4 -0.14107,0.0084 -1.81895,0.728697 -2.95934,2.702508 -3.08369,4.616628 2.86851,0.901333 3.06734,1.211194 5.35765,-0.09912 0.48014,-0.177496 0.8223,-0.568593 0.6267,-1.098697 -0.32892,-1.401667 -1.01152,-3.155854 -2.61851,-3.426153 -0.0469,0.0024 -0.094,-1.82e-4 -0.14108,-0.001 z m -108.32211,4.008279 c -1.062125,-0.01015 -2.162814,0.677313 -2.799974,1.514052 -1.787268,2.447955 -2.43167,5.422296 -2.92007,8.322304 -0.352949,1.467654 -0.259265,3.019192 -0.574863,4.486889 -0.146331,0.597761 0.08904,0.929505 0.677063,0.929505 h 11.67615 c -0.216056,-1.611465 0.205062,-3.28594 -0.322005,-4.866259 -0.166356,-0.329655 -0.249425,-0.967591 -0.667084,-1.009017 -1.981635,-0.06615 -4.11311,0.496901 -5.97597,-0.405916 -1.818645,-0.897167 -1.851143,-3.581811 -0.546989,-4.931289 0.965703,-1.163421 2.522861,-1.154959 3.916158,-1.241588 0.313201,-0.02117 0.310149,-0.27257 0.18375,-0.516246 -0.311624,-0.6695 -0.686934,-1.321571 -1.268992,-1.784744 -0.419685,-0.344173 -0.894393,-0.49308 -1.377174,-0.497691 z m 17.564273,3.667699 c -0.197539,2.401754 -0.311098,4.916486 -0.521091,7.347069 -0.19253,1.383727 -0.1297,2.88565 -0.520242,4.237982 h 9.582439 c 0.527418,0.02266 0.479521,-0.375309 0.304419,-0.640182 -0.513426,-0.838939 -0.978439,-1.708297 -1.415613,-2.575146 -0.962797,-2.043172 -1.888351,-4.113763 -2.730748,-6.203576 -1.501051,-0.517136 -3.086978,-1.165283 -4.192986,-2.352729 -0.342578,-0.317823 -0.512316,-0.179516 -0.506178,0.186582 z m 44.122206,3.033043 c -1.381751,1.223413 -1.395749,3.176382 -1.430143,4.877796 -0.118398,1.201375 0.03886,2.48605 -0.209774,3.674212 h 9.735142 c -0.04039,-0.831235 0.124218,-1.710652 0.202432,-2.499471 0.420949,-1.757208 0.229498,-3.667433 -0.685967,-5.243329 -2.318333,-3.175171 -5.466479,-3.101682 -7.61169,-0.809208 z m 43.046361,0.05035 c -1.35796,1.23027 -1.34231,3.169633 -1.38138,4.857343 -0.12057,1.192759 0.0391,2.465468 -0.20768,3.644318 h 9.74196 c -0.0404,-0.832478 0.1176,-1.708283 0.19509,-2.505239 0.43108,-1.77245 0.2139,-3.694816 -0.70641,-5.281613 -2.14039,-3.531424 -5.25719,-3.336265 -7.64158,-0.714809 z m -8.14273,0.962552 c -0.38087,1.277342 -0.86297,2.522928 -1.42929,3.715954 -0.63917,1.195162 -1.26654,2.452453 -2.09164,3.543998 -0.15087,0.193887 -0.11749,0.30254 0.11918,0.279154 h 5.05459 c -0.51228,-1.274294 -0.75942,-2.663572 -0.95605,-4.014047 -0.17249,-1.223997 -0.27141,-2.362094 -0.29576,-3.489508 -0.006,-1.070573 -0.10037,-1.059065 -0.40103,-0.03555 z m -20.226728,1.672464 c -0.124796,1.921164 -0.243527,3.968059 -1.122581,5.672062 -0.0965,0.144645 0.0312,0.19458 0.127363,0.19458 h 1.739955 c -0.394358,-1.944508 -0.482064,-3.937934 -0.607397,-5.925824 -0.03784,-0.295009 -0.121183,-0.219526 -0.13734,0.05918 z m -22.760038,0.555842 c -0.590845,1.79628 -1.684278,3.445688 -3.087391,4.684099 -0.533936,0.447833 -0.436382,0.626703 0.133121,0.626703 h 4.244574 c 0.134944,-0.02904 0.217304,-0.08272 0.137769,-0.292494 -0.452954,-1.23792 -0.674296,-2.571957 -0.861182,-3.866297 -0.05442,-0.360348 -0.10073,-0.72206 -0.139327,-1.084744 -0.105588,-0.711028 -0.255979,-0.748638 -0.427564,-0.06727 z m -42.190005,3.346259 c -0.0085,0.621467 -0.03663,1.310607 -0.165723,1.964544 h 0.454688 c -0.11053,-0.726721 -0.107137,-1.491744 -0.192994,-2.193199 -0.04407,-0.445046 -0.06675,-0.50586 -0.09597,0.228655 z m 106.878341,1.853888 c -0.0196,0.03667 -0.0368,0.07434 -0.0571,0.110656 h 0.0571 z" /><g
         id="g223117"
         style="fill:#c74730;fill-opacity:1"
         transform="matrix(1.0148492,0,0,1.0148492,6.73134,-93.984451)"><path
           style="fill:#c74730;fill-opacity:1;stroke-width:0.264583"
           d="m 55.574371,26.338442 c -2.64059,-0.6707 -5.07043,-2.74048 -6.73884,-5.74024 -3.6674,-6.59394 -1.80476,-15.1478938 3.85549,-17.7058238 3.09282,-1.397678 6.608442,-1.061038 9.193592,0.880335 1.9657,1.476177 2.36365,2.691869 1.09579,3.347509 -0.72144,0.37307 -0.79026,0.35564 -1.49332,-0.3782 -1.32797,-1.386104 -3.852572,-1.920112 -6.014852,-1.272275 -1.39918,0.419205 -3.50418,2.352805 -4.37919,4.022615 -0.63501,1.2118298 -0.70654,1.6246398 -0.69259,3.9972198 0.0133,2.26827 0.12078,2.90139 0.75286,4.4366 1.0167,2.46942 2.58616,4.15785 4.45475,4.79244 1.88754,0.64103 4.042912,0.50222 5.098842,-0.32838 1.26005,-0.99115 2.4104,-3.11006 2.67752,-4.93191 0.23422,-1.59742 0.35602,-1.92919 0.76604,-2.08653 1.23388,-0.47348 2.01744,1.19808 1.6906,3.60657 -0.54461,4.01325 -3.95225,7.29404 -7.78984,7.49988 -0.874812,0.0469 -1.989402,-0.016 -2.476852,-0.13981 z"
           id="path223105" /><path
           style="fill:#c74730;fill-opacity:1;stroke-width:0.264583"
           d="m 91.829157,26.510312 c -0.15553,-0.1874 -0.4182,-2.41755 -0.58371,-4.95589 -0.16551,-2.53834 -0.34775,-4.69092 -0.40498,-4.78351 -0.0572,-0.0926 -0.11802,-0.80924 -0.1351,-1.59255 -0.0171,-0.78331 -0.19842,-3.01314 -0.40298,-4.95517 -0.20455,-1.9420298 -0.37192,-4.2750598 -0.37192,-5.1845108 0,-1.982228 0.43952,-2.524565 2.20743,-2.723834 1.0725,-0.120886 1.22165,-0.06285 1.78028,0.692749 0.73606,0.995573 0.9023,1.006382 2.53631,0.164907 2.79647,-1.440113 5.709123,-1.373134 7.973673,0.183363 3.2148,2.20963 4.33304,4.557506 4.32377,9.0782358 -0.009,4.15097 -1.50501,8.82893 -3.91025,12.22323 -0.91054,1.28496 -1.37895,1.70243 -2.15067,1.91675 -1.24784,0.34655 -1.81603,0.34726 -2.45918,0.003 -0.875553,-0.46858 -0.586493,-1.4316 1.12094,-3.73441 2.71611,-3.66323 4.07167,-6.93555 4.3758,-10.56319 0.2883,-3.4388698 -1.40317,-6.5118498 -3.99189,-7.2522928 -1.43561,-0.410625 -2.927693,-0.246429 -3.810063,0.419279 -3.26251,2.461414 -3.70565,4.227784 -4.16667,16.6084738 -0.0779,2.09161 -0.26119,4.02637 -0.40735,4.29948 -0.30602,0.57179 -1.10997,0.65403 -1.52344,0.15583 z"
           id="path223107" /><path
           style="fill:#c74730;fill-opacity:1;stroke-width:0.264583"
           d="m 46.919414,29.393962 c -3.12222,-0.82552 -5.15158,-3.36619 -8.05425,-10.08355 l -1.60063,-3.70416 -1.53475,-0.52917 c -2.65563,-0.91564 -4.19598,-3.06647 -2.94163,-4.10748 0.33337,-0.27667 0.50811,-0.24548 0.99219,0.17711 0.90549,0.79047 2.48647,1.41693 3.57309,1.41584 2.78465,-0.003 4.38877,-3.0891998 2.83671,-5.4579498 -0.88365,-1.348612 -3.64965,-2.155077 -6.81832,-1.987972 -1.08132,0.05703 -2.60975,1.566572 -2.72925,2.695542 -0.0533,0.5032 -0.15594,1.2721 -0.22817,1.70866 -0.19491,1.1780898 -0.3772,3.2455998 -0.67653,7.6729198 -0.48178,7.12624 -0.59378,8.19047 -0.95581,9.08234 -0.42534,1.04787 -1.16179,1.05681 -1.43974,0.0175 -0.10146,-0.37937 -0.26149,-2.46297 -0.35564,-4.63021 -0.0942,-2.16725 -0.22562,-4.59529 -0.29217,-5.39566 -0.28086,-3.37782 -0.38523,-5.12462 -0.55015,-9.2080798 -0.16229,-4.018268 -0.14037,-4.338915 0.3205,-4.687939 0.3859,-0.292255 1.61347,-0.376499 5.58178,-0.383064 4.67214,-0.0077 5.20769,0.04014 6.56573,0.586898 2.6907,1.083286 5.408,4.669375 4.73238,6.245435 -0.10262,0.23942 -0.16185,0.81219 -0.13161,1.2728498 0.0302,0.46066 -0.1239,1.18348 -0.34253,1.60628 -0.47274,0.91416 -2.27176,2.71553 -2.71201,2.71553 -0.17057,0 -0.36826,0.15146 -0.4393,0.33659 -0.13427,0.34991 1.4468,4.05805 2.25536,5.28957 0.25466,0.38787 0.46302,0.82429 0.46302,0.96981 0,0.14552 0.23813,0.39202 0.52917,0.54778 0.29104,0.15576 0.52917,0.45538 0.52917,0.66581 0,0.21044 0.71244,1.06946 1.58319,1.90893 1.29342,1.24694 1.9593,1.65679 3.63802,2.2392 1.13016,0.3921 2.16307,0.88193 2.29537,1.08852 0.81597,1.27414 -1.84005,2.52786 -4.09319,1.93213 z"
           id="path223109" /><path
           style="fill:#c74730;fill-opacity:1;stroke-width:0.264583"
           d="m 84.589717,26.686392 c -0.13853,-0.36101 0.0108,-2.23948 0.33987,-4.27499 0.33229,-2.05547 -1.12627,-5.648 -2.56001,-6.30546 -0.35268,-0.16173 -1.09575,-0.49106 -1.651272,-0.73183 -1.404613,-0.6088 -1.261806,-1.3759 0.411082,-2.20826 1.67249,-0.83216 1.9384,-1.37185 1.54409,-3.13382 -0.59811,-2.6726598 -2.294111,-4.4358538 -4.266802,-4.4358538 -1.93934,0 -4.438977,3.012214 -4.676887,5.6359138 -0.16077,1.7729 -0.0109,1.93198 2.11089,2.23978 1.683107,0.24417 2.09111,0.9338 0.908957,1.53644 -0.463167,0.23612 -1.108067,0.50442 -1.433087,0.59622 -0.97724,0.276 -2.57834,2.07273 -2.96811,3.33074 -0.20715,0.66857 -0.3777,2.49928 -0.39847,4.27707 -0.0374,3.19916 -0.2114,3.76422 -1.107577,3.59629 -1.00411,-0.18814 -1.99574,-4.77595 -1.97093,-9.11848 0.041,-7.17361 4.398367,-15.1126058 8.689694,-15.8324248 2.107814,-0.353559 3.1187,0.01633 5.066632,1.853921 1.95182,1.841247 2.78646,3.205164 3.79773,6.206054 1.19662,3.5508898 1.59554,5.6656098 1.21036,6.4161498 -0.16135,0.3144 -0.1368,0.46302 0.0765,0.46302 0.45984,0 0.12262,6.13955 -0.42101,7.66538 -0.66377,1.86303 -2.31769,3.22464 -2.70162,2.22414 z"
           id="path223111" /><path
           style="fill:#c74730;fill-opacity:1;stroke-width:0.264583"
           d="m 127.05534,26.686392 c -0.13853,-0.36101 0.0108,-2.23948 0.33987,-4.27499 0.33229,-2.05547 -1.12627,-5.648 -2.56001,-6.30546 -0.35268,-0.16173 -1.09576,-0.49106 -1.65128,-0.73183 -1.40462,-0.6088 -1.26181,-1.3759 0.41108,-2.20826 1.6725,-0.83216 1.93841,-1.37185 1.5441,-3.13382 -0.59811,-2.6726598 -2.29412,-4.4358538 -4.26682,-4.4358538 -1.93934,0 -4.43898,3.012214 -4.67689,5.6359138 -0.16077,1.7729 -0.0109,1.93198 2.11089,2.23978 1.68311,0.24417 2.09111,0.9338 0.90896,1.53644 -0.46317,0.23612 -1.10807,0.50442 -1.43309,0.59622 -0.97724,0.276 -2.57834,2.07273 -2.96811,3.33074 -0.20715,0.66857 -0.3777,2.49928 -0.39847,4.27707 -0.0374,3.19916 -0.2114,3.76422 -1.10757,3.59629 -1.00411,-0.18814 -1.99574,-4.77595 -1.97093,-9.11848 0.041,-7.17361 4.39836,-15.1126058 8.68969,-15.8324248 2.10782,-0.353559 3.11871,0.01633 5.06665,1.853921 1.95182,1.841247 2.78646,3.205164 3.79773,6.206054 1.19662,3.5508898 1.59554,5.6656098 1.21036,6.4161498 -0.16135,0.3144 -0.1368,0.46302 0.0765,0.46302 0.45984,0 0.12262,6.13955 -0.42101,7.66538 -0.66377,1.86303 -2.31769,3.22464 -2.70162,2.22414 z"
           id="path223113" /><path
           d="m 22.407575,26.829282 c -0.11623,-0.11622 -0.740497,-0.56276 -0.740497,-0.99229 0,-0.87463 0.230747,-2.46876 -0.181193,-4.40949 -0.21486,-1.0122 -0.4102,-1.447502 -0.88583,-1.97397 l -0.6102,-0.67542 -2.60643,0.0914 c -2.42019,0.08487 -2.72959,0.0592 -3.28796,-0.25144 -0.57393,-0.31921 -0.61549,-0.40053 -0.60369,-1.18098 0.0108,-0.71217 0.0972,-0.91371 0.57512,-1.3407 0.48806,-0.43608 0.70763,-0.50357 1.66031,-0.51031 1.38448,-0.01 3.14791,-0.38123 3.21922,-0.74262 0.11286,-0.57192 -1.04912,-3.152087 -2.03344,-4.118367 -1.40324,-1.3775198 -3.26,-1.5330298 -5.14429,-0.45494 -2.7323599,1.5633 -4.5793499,6.564767 -5.1969799,13.666617 -0.11866,1.36436 -0.26568,1.81413 -0.53921,2.08765 -0.4254,0.4254 -1.02124,0.29154 -1.19928,-0.26943 -0.32817,-1.03397 0.0901,-6.80234 0.65382,-9.01646 0.18252,-0.71691 1.04304,-3.58185 1.50751,-5.01897 0.79337,-2.4548098 3.5573499,-6.7132378 5.4887099,-8.4563558 1.34502,-1.21392 1.96804,-1.471578 2.7174,-1.48185 1.26598,-0.01735 3.8268,2.436152 4.60992,3.457232 0.64312,0.838546 1.97061,3.397655 2.50052,4.8549138 0.46185,1.270098 0.85707,2.887177 1.25442,4.577787 0.19891,0.84627 0.2192,3.571665 0.24671,4.188541 0.0872,1.95647 0.25645,6.68154 -0.30108,7.7564 -0.22512,0.43403 -0.77318,0.543462 -1.10358,0.213052 z"
           style="opacity:1;fill:#c74730;fill-opacity:1;stroke-width:0.176104"
           id="path223115" /></g></g></g></svg>
